<?xml version="1.0" encoding="utf-8"?>
<!-- Generator: Adobe Illustrator 16.0.0, SVG Export Plug-In . SVG Version: 6.00 Build 0)  -->
<!DOCTYPE svg PUBLIC "-//W3C//DTD SVG 1.1//EN" "http://www.w3.org/Graphics/SVG/1.1/DTD/svg11.dtd">
<svg version="1.1" id="Ebene_1" xmlns="http://www.w3.org/2000/svg" xmlns:xlink="http://www.w3.org/1999/xlink" x="0px" y="0px"
	 width="138.6px" height="216.6px" viewBox="0 0 138.6 216.6" enable-background="new 0 0 138.6 216.6" xml:space="preserve">
<g>
	<defs>
		<rect id="SVGID_1_" width="138.6" height="216.6"/>
	</defs>
	<clipPath id="SVGID_2_">
		<use xlink:href="#SVGID_1_"  overflow="visible"/>
	</clipPath>
	<path clip-path="url(#SVGID_2_)" fill="#D9E5EC" d="M42,78.6c0-6.398,0.6-12.197,1.8-17.4c1.2-5.197,3.197-9.6,6-13.199
		c2.798-3.601,6.497-6.398,11.1-8.4c4.598-1.997,10.298-3,17.1-3c4.8,0,9.197,0.6,13.2,1.8c3.998,1.2,7.897,3,11.7,5.4l3,1.8
		c1.996,1.2,3.797,2.25,5.399,3.15c1.599,0.899,4.097,1.35,7.5,1.35c5.798,0,10.548-1.8,14.25-5.4c3.698-3.6,5.55-7.8,5.55-12.6
		c0-4.397-1.752-8.55-5.25-12.45c-3.502-3.899-8.151-7.298-13.949-10.2C113.598,6.553,106.997,4.252,99.6,2.55
		C92.198,0.853,84.497,0,76.5,0C63.3,0,51.9,1.852,42.3,5.55c-9.6,3.703-17.55,9-23.85,15.899c-6.3,6.9-10.95,15.202-13.95,24.9
		C1.5,56.053,0,66.802,0,78.6V138c0,11.803,1.5,22.552,4.5,32.25c3,9.702,7.65,18,13.95,24.899c6.3,6.9,14.25,12.202,23.85,15.9
		c9.6,3.698,21,5.55,34.2,5.55c7.997,0,15.698-0.853,23.1-2.55c7.397-1.697,13.998-3.998,19.801-6.9
		c5.798-2.896,10.447-6.3,13.949-10.2c3.498-3.899,5.25-8.048,5.25-12.449c0-4.801-1.852-9-5.55-12.601
		c-3.702-3.6-8.452-5.399-14.25-5.399c-3.403,0-5.901,0.449-7.5,1.35c-1.603,0.9-3.403,1.95-5.399,3.15l-3,1.8
		c-3.803,2.399-7.702,4.2-11.7,5.399C87.197,179.399,82.8,180,78,180c-6.802,0-12.502-0.998-17.1-3
		c-4.603-1.997-8.302-4.801-11.1-8.4c-2.803-3.6-4.8-7.997-6-13.2C42.6,150.201,42,144.402,42,138V78.6z"/>
</g>
</svg>
