<?xml version="1.0" encoding="utf-8"?>
<!-- Generator: Adobe Illustrator 16.0.0, SVG Export Plug-In . SVG Version: 6.00 Build 0)  -->
<!DOCTYPE svg PUBLIC "-//W3C//DTD SVG 1.1//EN" "http://www.w3.org/Graphics/SVG/1.1/DTD/svg11.dtd">
<svg version="1.1" id="Ebene_1" xmlns="http://www.w3.org/2000/svg" xmlns:xlink="http://www.w3.org/1999/xlink" x="0px" y="0px"
	 width="197.1px" height="44.7px" viewBox="0 0 197.1 44.7" style="enable-background:new 0 0 197.1 44.7;" xml:space="preserve">
<style type="text/css">
<![CDATA[
	.st0{fill:#11181F;}
	.st1{fill:#1D1D1B;}
	.st2{fill:#F6F6F6;}
	.st3{fill:#324052;}
	.st4{fill:#009992;}
	.st5{fill:#D9E5EC;}
]]>
</style>
<g>
	<g>
		<g>
			<path class="st0" d="M58.3,30.1c0-2.8,0.7-5.1,2-6.7c1.4-1.6,3.2-2.4,5.6-2.4c2,0,3.6,0.5,4.9,1.6c1.3,1.1,2,2.5,2.1,4.3h-2.1
				c-0.2-1.2-0.7-2.2-1.6-3s-2-1.1-3.3-1.1c-1.7,0-3.1,0.6-4.1,1.9s-1.5,3-1.5,5.3c0,2.3,0.5,4.1,1.5,5.4c1,1.3,2.4,2,4.1,2
				c1.3,0,2.4-0.4,3.3-1.2c0.9-0.8,1.4-2,1.6-3.4h2c-0.2,2-0.9,3.5-2.2,4.7c-1.3,1.1-2.9,1.7-4.9,1.7c-2.3,0-4.2-0.8-5.5-2.4
				C58.9,35,58.3,32.8,58.3,30.1z"/>
			<path class="st0" d="M74.3,30c0-2.9,0.7-5.1,2.1-6.7c1.4-1.6,3.3-2.4,5.8-2.4s4.4,0.8,5.8,2.4c1.4,1.6,2.1,3.8,2.1,6.7
				c0,2.8-0.7,5-2.1,6.6c-1.4,1.6-3.3,2.3-5.8,2.3c-2.5,0-4.4-0.8-5.8-2.3C75,35.1,74.3,32.9,74.3,30z M76.3,30
				c0,2.3,0.5,4.1,1.5,5.4c1,1.3,2.4,1.9,4.3,1.9c1.9,0,3.3-0.6,4.3-1.9S88,32.3,88,30s-0.5-4.1-1.5-5.4c-1-1.3-2.4-1.9-4.3-1.9
				c-1.8,0-3.3,0.6-4.3,1.9C76.9,25.9,76.3,27.7,76.3,30z"/>
			<path class="st0" d="M91.8,30c0-2.8,0.7-5,2.1-6.6c1.4-1.6,3.2-2.4,5.6-2.4c1.3,0,2.5,0.3,3.5,0.9c1,0.6,1.8,1.4,2.4,2.5v-9.6h2
				v23.7h-2v-2.9c-0.7,1.1-1.5,2-2.5,2.5c-1,0.6-2.2,0.8-3.5,0.8c-2.3,0-4.1-0.8-5.5-2.4C92.4,35,91.8,32.8,91.8,30z M93.9,30
				c0,2.3,0.5,4.1,1.5,5.3s2.4,1.9,4.2,1.9c1.9,0,3.3-0.6,4.3-1.9s1.5-3,1.5-5.4c0-2.3-0.5-4.1-1.5-5.4c-1-1.3-2.4-1.9-4.3-1.9
				c-1.8,0-3.3,0.6-4.3,1.9C94.4,25.9,93.9,27.7,93.9,30z"/>
			<path class="st0" d="M108.9,30.1c0-2.9,0.7-5.1,2-6.7c1.3-1.6,3.2-2.4,5.5-2.4c2.3,0,4.1,0.8,5.4,2.3c1.3,1.5,1.9,3.7,1.9,6.4
				v0.7h-12.8v0.1c0,2.1,0.5,3.8,1.5,5c1,1.2,2.4,1.9,4.1,1.9c1.3,0,2.5-0.4,3.4-1.1c0.9-0.7,1.5-1.7,1.6-3h2.2
				c-0.2,1.7-1,3.1-2.3,4.2s-3,1.6-5,1.6c-2.3,0-4.1-0.8-5.5-2.4C109.6,35.1,108.9,32.9,108.9,30.1z M110.9,28.7l10.7,0
				c-0.1-1.9-0.6-3.4-1.6-4.5c-0.9-1.1-2.2-1.6-3.7-1.6c-1.6,0-2.8,0.5-3.8,1.6C111.6,25.4,111,26.9,110.9,28.7z"/>
		</g>
		<g>
			<path class="st0" d="M126.1,24.5V21h2.4v-5h5.7v5h3v3.5h-3v7.3c0,1.1,0.2,1.9,0.5,2.2s0.9,0.5,1.7,0.5c0.2,0,0.3,0,0.4,0
				s0.2,0,0.3,0v4c-0.6,0.1-1.2,0.2-1.8,0.3c-0.6,0.1-1.1,0.1-1.7,0.1c-2,0-3.3-0.5-4.1-1.5s-1.1-3-1.1-6.2v-6.8H126.1z"/>
			<path class="st0" d="M140.1,33.9c0-1.5,0.4-2.6,1.2-3.5s2-1.5,3.6-1.9c0.9-0.2,2-0.4,3.3-0.6c2-0.3,3-0.8,3-1.4V26
				c0-0.5-0.2-0.9-0.6-1.2c-0.4-0.3-0.9-0.4-1.7-0.4c-0.8,0-1.5,0.2-1.9,0.5c-0.5,0.3-0.8,0.8-0.9,1.5h-5.4c0.3-2,1.1-3.4,2.5-4.4
				s3.3-1.4,5.9-1.4c1.6,0,2.9,0.2,4,0.6c1.1,0.4,1.9,0.9,2.6,1.7c0.4,0.5,0.7,1.2,0.9,2c0.2,0.8,0.3,2,0.3,3.7v6.6
				c0,0.8,0.1,1.4,0.2,1.9c0.1,0.5,0.4,0.8,0.7,0.9v0.7h-6c-0.1-0.3-0.1-0.6-0.2-0.9c-0.1-0.3-0.1-0.6-0.1-0.9
				c-0.8,0.8-1.7,1.4-2.6,1.8s-1.9,0.6-3,0.6c-1.7,0-3.1-0.5-4.1-1.4C140.6,36.8,140.1,35.5,140.1,33.9z M145.7,33.3
				c0,0.6,0.2,1.1,0.6,1.5c0.4,0.4,0.9,0.6,1.5,0.6c1,0,1.8-0.3,2.4-0.8c0.6-0.6,0.9-1.3,0.9-2.2v-2c-0.4,0.3-1.2,0.5-2.3,0.8
				c-0.5,0.1-0.9,0.2-1.2,0.3c-0.7,0.2-1.2,0.4-1.5,0.7C145.8,32.4,145.7,32.8,145.7,33.3z"/>
			<path class="st0" d="M159.4,33.2h5.7c0.1,0.8,0.4,1.4,0.9,1.7s1.2,0.6,2.2,0.6c0.8,0,1.4-0.2,1.9-0.5c0.5-0.3,0.7-0.7,0.7-1.3
				c0-0.7-0.9-1.2-2.7-1.7c-1-0.3-1.7-0.5-2.3-0.7c-2.2-0.7-3.7-1.5-4.5-2.2c-0.8-0.8-1.2-1.8-1.2-3c0-1.8,0.7-3.2,2-4.2
				c1.4-1,3.2-1.5,5.6-1.5c2.5,0,4.5,0.4,5.9,1.3s2.2,2.2,2.3,3.9h-5.6c-0.1-0.6-0.4-1-0.8-1.3c-0.4-0.3-1-0.4-1.7-0.4
				c-0.7,0-1.2,0.1-1.6,0.4c-0.4,0.2-0.6,0.6-0.6,1c0,0.6,1,1.2,2.9,1.7c0.5,0.1,0.8,0.2,1,0.3c1.7,0.5,2.9,0.9,3.6,1.2
				c0.7,0.3,1.2,0.5,1.5,0.7c0.6,0.5,1.1,1,1.4,1.7c0.3,0.6,0.4,1.4,0.4,2.2c0,1.9-0.7,3.4-2.2,4.5s-3.6,1.6-6.2,1.6
				c-2.6,0-4.7-0.5-6.2-1.5S159.5,35.1,159.4,33.2z"/>
			<path class="st0" d="M179.3,38.5V14.8h5.6V27l5.3-6h6.7l-6.1,6.7l6.2,10.8h-6.4l-3.7-6.9l-2.1,2.2v4.7H179.3z"/>
		</g>
	</g>
	<g>
		<path class="st0" d="M0,26.5v-5.3c0.1,0,0.2,0,0.4,0s0.3,0,0.4,0c1.7,0,3-0.4,3.7-1.2c0.7-0.8,1.1-2.2,1.1-4.2v-5.6
			c0-2,0.2-3.4,0.5-4.3s1-1.5,1.8-2c0.7-0.4,1.6-0.6,2.7-0.8s2.4-0.3,4-0.3c0.2,0,0.5,0,0.8,0c0.4,0,0.7,0,0.9,0v5.3
			c-0.1,0-0.3,0-0.5,0c-0.2,0-0.4,0-0.4,0C14,8.2,13,8.5,12.5,9c-0.5,0.5-0.8,1.6-0.8,3.2v5.3c0,2.1-0.3,3.5-1,4.4
			c-0.7,0.9-1.9,1.5-3.6,1.9c1.8,0.4,3,1,3.7,1.8c0.7,0.9,1,2.3,1,4.4v5.3c0,1.6,0.2,2.7,0.7,3.2c0.5,0.5,1.5,0.8,2.9,0.8
			c0.1,0,0.3,0,0.5,0c0.2,0,0.4,0,0.5,0v5.3c-0.2,0-0.5,0-0.9,0c-0.4,0-0.7,0-0.9,0c-1.6,0-2.9-0.1-4-0.3c-1.1-0.2-1.9-0.4-2.6-0.8
			c-0.9-0.5-1.5-1.1-1.8-2c-0.3-0.8-0.5-2.2-0.5-4.2v-5.6c0-2-0.4-3.3-1.1-4.1c-0.7-0.8-2-1.2-3.7-1.2c-0.1,0-0.2,0-0.4,0
			C0.2,26.5,0.1,26.5,0,26.5z"/>
		<path class="st0" d="M35.5,39.3c0.1,0,0.3,0,0.5,0c0.2,0,0.4,0,0.4,0c1.4,0,2.4-0.3,2.9-0.8c0.5-0.5,0.7-1.6,0.7-3.2V30
			c0-2.1,0.3-3.5,1-4.4c0.7-0.9,1.9-1.5,3.6-1.8c-1.8-0.4-3-1-3.7-1.9c-0.7-0.9-1-2.3-1-4.4v-5.3c0-1.6-0.2-2.7-0.7-3.2
			c-0.5-0.5-1.4-0.8-2.8-0.8c-0.1,0-0.3,0-0.5,0c-0.2,0-0.4,0-0.5,0V2.9c0.2,0,0.5,0,0.9,0c0.4,0,0.7,0,0.8,0c1.6,0,2.9,0.1,4,0.3
			c1.1,0.2,1.9,0.4,2.7,0.8c0.9,0.5,1.5,1.1,1.8,2s0.5,2.3,0.5,4.3v5.6c0,2,0.4,3.4,1.1,4.2c0.7,0.8,2,1.2,3.7,1.2
			c0.1,0,0.2,0,0.4,0c0.2,0,0.3,0,0.4,0v5.3c-0.1,0-0.2,0-0.4,0c-0.2,0-0.3,0-0.4,0c-1.8,0-3,0.4-3.7,1.2c-0.7,0.8-1.1,2.2-1.1,4.1
			v5.6c0,2-0.2,3.4-0.5,4.3c-0.4,0.8-1,1.5-1.8,2c-0.7,0.4-1.5,0.6-2.5,0.8c-1,0.2-2.3,0.3-3.9,0.3c-0.2,0-0.5,0-1,0
			c-0.4,0-0.8,0-1,0V39.3z"/>
	</g>
	<g>
		<polygon class="st4" points="27.4,35.4 13.2,26.5 16.9,21.4 25.8,27 47.5,0 52,4.1 		"/>
	</g>
</g>
</svg>
