<?xml version="1.0" encoding="utf-8"?>
<!-- Generator: Adobe Illustrator 16.0.0, SVG Export Plug-In . SVG Version: 6.00 Build 0)  -->
<!DOCTYPE svg PUBLIC "-//W3C//DTD SVG 1.1//EN" "http://www.w3.org/Graphics/SVG/1.1/DTD/svg11.dtd">
<svg version="1.1" id="Ebene_1" xmlns="http://www.w3.org/2000/svg" xmlns:xlink="http://www.w3.org/1999/xlink" x="0px" y="0px"
	 width="138.9px" height="24.3px" viewBox="0 0 138.9 24.3" style="enable-background:new 0 0 138.9 24.3;" xml:space="preserve">
<style type="text/css">
<![CDATA[
	.st0{fill:#11181F;}
	.st1{fill:#1D1D1B;}
	.st2{fill:#F6F6F6;}
	.st3{fill:#324052;}
	.st4{fill:#009992;}
	.st5{fill:#D9E5EC;}
]]>
</style>
<g>
	<g>
		<path class="st0" d="M0,15.3c0-2.8,0.7-5.1,2-6.7C3.4,7,5.3,6.2,7.6,6.2c2,0,3.6,0.5,4.9,1.6c1.3,1.1,2,2.5,2.1,4.3h-2.1
			c-0.2-1.2-0.7-2.2-1.6-3S8.9,8,7.6,8C5.9,8,4.6,8.6,3.6,9.9S2,12.9,2,15.1c0,2.3,0.5,4.1,1.5,5.4c1,1.3,2.4,2,4.1,2
			c1.3,0,2.4-0.4,3.3-1.2c0.9-0.8,1.4-2,1.6-3.4h2c-0.2,2-0.9,3.5-2.2,4.7c-1.3,1.1-2.9,1.7-4.9,1.7c-2.3,0-4.2-0.8-5.5-2.4
			S0,18.1,0,15.3z"/>
		<path class="st0" d="M16,15.2c0-2.9,0.7-5.1,2.1-6.7c1.4-1.6,3.3-2.4,5.8-2.4s4.4,0.8,5.8,2.4c1.4,1.6,2.1,3.8,2.1,6.7
			c0,2.8-0.7,5-2.1,6.6c-1.4,1.6-3.3,2.3-5.8,2.3c-2.5,0-4.4-0.8-5.8-2.3C16.7,20.3,16,18.1,16,15.2z M18.1,15.2
			c0,2.3,0.5,4.1,1.5,5.4c1,1.3,2.4,1.9,4.3,1.9c1.9,0,3.3-0.6,4.3-1.9s1.5-3.1,1.5-5.4s-0.5-4.1-1.5-5.4c-1-1.3-2.4-1.9-4.3-1.9
			c-1.8,0-3.3,0.6-4.3,1.9C18.6,11.1,18.1,12.9,18.1,15.2z"/>
		<path class="st0" d="M33.5,15.2c0-2.8,0.7-5,2.1-6.6c1.4-1.6,3.2-2.4,5.6-2.4c1.3,0,2.5,0.3,3.5,0.9c1,0.6,1.8,1.4,2.4,2.5V0h2
			v23.7h-2v-2.9c-0.7,1.1-1.5,2-2.5,2.5c-1,0.6-2.2,0.8-3.5,0.8c-2.3,0-4.1-0.8-5.5-2.4C34.2,20.2,33.5,18,33.5,15.2z M35.6,15.2
			c0,2.3,0.5,4.1,1.5,5.3s2.4,1.9,4.2,1.9c1.9,0,3.3-0.6,4.3-1.9s1.5-3,1.5-5.4c0-2.3-0.5-4.1-1.5-5.4c-1-1.3-2.4-1.9-4.3-1.9
			c-1.8,0-3.3,0.6-4.3,1.9C36.1,11.1,35.6,12.9,35.6,15.2z"/>
		<path class="st0" d="M50.7,15.3c0-2.9,0.7-5.1,2-6.7C54,7,55.8,6.2,58.2,6.2c2.3,0,4.1,0.8,5.4,2.3c1.3,1.5,1.9,3.7,1.9,6.4v0.7
			H52.6v0.1c0,2.1,0.5,3.8,1.5,5c1,1.2,2.4,1.9,4.1,1.9c1.3,0,2.5-0.4,3.4-1.1c0.9-0.7,1.5-1.7,1.6-3h2.2c-0.2,1.7-1,3.1-2.3,4.2
			s-3,1.6-5,1.6c-2.3,0-4.1-0.8-5.5-2.4C51.3,20.3,50.7,18.1,50.7,15.3z M52.7,14l10.7,0c-0.1-1.9-0.6-3.4-1.6-4.5
			c-0.9-1.1-2.2-1.6-3.7-1.6c-1.6,0-2.8,0.5-3.8,1.6C53.3,10.6,52.8,12.1,52.7,14z"/>
	</g>
	<g>
		<path class="st0" d="M67.8,9.7V6.2h2.4v-5h5.7v5h3v3.5h-3V17c0,1.1,0.2,1.9,0.5,2.2s0.9,0.5,1.7,0.5c0.2,0,0.3,0,0.4,0
			s0.2,0,0.3,0v4C78.2,23.9,77.6,24,77,24c-0.6,0.1-1.1,0.1-1.7,0.1c-2,0-3.3-0.5-4.1-1.5s-1.1-3-1.1-6.2V9.7H67.8z"/>
		<path class="st0" d="M81.8,19.1c0-1.5,0.4-2.6,1.2-3.5s2-1.5,3.6-1.9c0.9-0.2,2-0.4,3.3-0.6c2-0.3,3-0.8,3-1.4v-0.4
			c0-0.5-0.2-0.9-0.6-1.2c-0.4-0.3-0.9-0.4-1.7-0.4c-0.8,0-1.5,0.2-1.9,0.5c-0.5,0.3-0.8,0.8-0.9,1.5h-5.4c0.3-2,1.1-3.4,2.5-4.4
			s3.3-1.4,5.9-1.4c1.6,0,2.9,0.2,4,0.6c1.1,0.4,1.9,0.9,2.6,1.7c0.4,0.5,0.7,1.2,0.9,2c0.2,0.8,0.3,2,0.3,3.7v6.6
			c0,0.8,0.1,1.4,0.2,1.9c0.1,0.5,0.4,0.8,0.7,0.9v0.7h-6c-0.1-0.3-0.1-0.6-0.2-0.9c-0.1-0.3-0.1-0.6-0.1-0.9
			c-0.8,0.8-1.7,1.4-2.6,1.8s-1.9,0.6-3,0.6c-1.7,0-3.1-0.5-4.1-1.4C82.3,22,81.8,20.7,81.8,19.1z M87.4,18.5c0,0.6,0.2,1.1,0.6,1.5
			c0.4,0.4,0.9,0.6,1.5,0.6c1,0,1.8-0.3,2.4-0.8c0.6-0.6,0.9-1.3,0.9-2.2v-2c-0.4,0.3-1.2,0.5-2.3,0.8c-0.5,0.1-0.9,0.2-1.2,0.3
			c-0.7,0.2-1.2,0.4-1.5,0.7C87.6,17.6,87.4,18,87.4,18.5z"/>
		<path class="st0" d="M101.1,18.4h5.7c0.1,0.8,0.4,1.4,0.9,1.7s1.2,0.6,2.2,0.6c0.8,0,1.4-0.2,1.9-0.5c0.5-0.3,0.7-0.7,0.7-1.3
			c0-0.7-0.9-1.2-2.7-1.7c-1-0.3-1.7-0.5-2.3-0.7c-2.2-0.7-3.7-1.5-4.5-2.2c-0.8-0.8-1.2-1.8-1.2-3c0-1.8,0.7-3.2,2-4.2
			c1.4-1,3.2-1.5,5.6-1.5c2.5,0,4.5,0.4,5.9,1.3s2.2,2.2,2.3,3.9h-5.6c-0.1-0.6-0.4-1-0.8-1.3c-0.4-0.3-1-0.4-1.7-0.4
			c-0.7,0-1.2,0.1-1.6,0.4c-0.4,0.2-0.6,0.6-0.6,1c0,0.6,1,1.2,2.9,1.7c0.5,0.1,0.8,0.2,1,0.3c1.7,0.5,2.9,0.9,3.6,1.2
			c0.7,0.3,1.2,0.5,1.5,0.7c0.6,0.5,1.1,1,1.4,1.7c0.3,0.6,0.4,1.4,0.4,2.2c0,1.9-0.7,3.4-2.2,4.5s-3.6,1.6-6.2,1.6
			c-2.6,0-4.7-0.5-6.2-1.5S101.3,20.3,101.1,18.4z"/>
		<path class="st0" d="M121.1,23.7V0h5.6v12.2l5.3-6h6.7l-6.1,6.7l6.2,10.8h-6.4l-3.7-6.9l-2.1,2.2v4.7H121.1z"/>
	</g>
</g>
</svg>
