<?xml version="1.0" encoding="utf-8"?>
<!-- Generator: Adobe Illustrator 16.0.0, SVG Export Plug-In . SVG Version: 6.00 Build 0)  -->
<!DOCTYPE svg PUBLIC "-//W3C//DTD SVG 1.1//EN" "http://www.w3.org/Graphics/SVG/1.1/DTD/svg11.dtd">
<svg version="1.1" id="Ebene_1" xmlns="http://www.w3.org/2000/svg" xmlns:xlink="http://www.w3.org/1999/xlink" x="0px" y="0px"
	 width="98.6px" height="67.5px" viewBox="0 0 98.6 67.5" style="enable-background:new 0 0 98.6 67.5;" xml:space="preserve">
<style type="text/css">
<![CDATA[
	.st0{fill:#11181F;}
	.st1{fill:#1D1D1B;}
	.st2{fill:#F6F6F6;}
	.st3{fill:#324052;}
	.st4{fill:#009992;}
	.st5{fill:#D9E5EC;}
]]>
</style>
<g>
	<g>
		<path class="st0" d="M0,61.1c0-2,0.5-3.6,1.5-4.8c1-1.2,2.3-1.7,4-1.7c1.4,0,2.6,0.4,3.5,1.2c0.9,0.8,1.4,1.8,1.5,3H8.9
			c-0.1-0.9-0.5-1.6-1.1-2.1s-1.4-0.8-2.3-0.8c-1.2,0-2.2,0.5-2.9,1.4S1.5,59.4,1.5,61c0,1.6,0.4,2.9,1.1,3.8
			c0.7,0.9,1.7,1.4,2.9,1.4c1,0,1.7-0.3,2.4-0.9c0.6-0.6,1-1.4,1.2-2.4h1.4c-0.1,1.4-0.6,2.5-1.6,3.3s-2.1,1.2-3.5,1.2
			c-1.7,0-3-0.6-3.9-1.7C0.5,64.6,0,63.1,0,61.1z"/>
		<path class="st0" d="M11.4,61.1c0-2,0.5-3.6,1.5-4.8c1-1.1,2.4-1.7,4.1-1.7c1.8,0,3.2,0.6,4.1,1.7c1,1.1,1.5,2.7,1.5,4.8
			c0,2-0.5,3.6-1.5,4.7s-2.4,1.7-4.1,1.7c-1.8,0-3.2-0.6-4.1-1.7C11.9,64.7,11.4,63.1,11.4,61.1z M12.9,61.1c0,1.6,0.4,2.9,1.1,3.8
			c0.7,0.9,1.7,1.4,3.1,1.4c1.3,0,2.3-0.4,3.1-1.3c0.7-0.9,1.1-2.2,1.1-3.8s-0.4-2.9-1.1-3.8c-0.7-0.9-1.7-1.4-3.1-1.4
			c-1.3,0-2.3,0.5-3.1,1.4C13.3,58.1,12.9,59.4,12.9,61.1z"/>
		<path class="st0" d="M23.9,61c0-2,0.5-3.6,1.5-4.7c1-1.2,2.3-1.7,4-1.7c1,0,1.8,0.2,2.5,0.6c0.7,0.4,1.3,1,1.7,1.8v-6.8H35v16.9
			h-1.4v-2.1c-0.5,0.8-1.1,1.4-1.8,1.8s-1.6,0.6-2.5,0.6c-1.6,0-2.9-0.6-3.9-1.7C24.4,64.6,23.9,63,23.9,61z M25.4,61
			c0,1.6,0.4,2.9,1.1,3.8s1.7,1.4,3,1.4c1.3,0,2.4-0.4,3.1-1.3c0.7-0.9,1.1-2.2,1.1-3.8c0-1.7-0.4-2.9-1.1-3.8
			c-0.7-0.9-1.7-1.4-3.1-1.4c-1.3,0-2.3,0.4-3,1.3C25.8,58.1,25.4,59.4,25.4,61z"/>
		<path class="st0" d="M36.2,61.1c0-2,0.5-3.6,1.4-4.8c0.9-1.1,2.3-1.7,3.9-1.7c1.6,0,2.9,0.5,3.8,1.6c0.9,1.1,1.4,2.6,1.4,4.6v0.5
			h-9.2v0.1c0,1.5,0.4,2.7,1.1,3.6c0.7,0.9,1.7,1.3,2.9,1.3c1,0,1.8-0.3,2.4-0.8c0.6-0.5,1-1.2,1.2-2.1h1.5c-0.2,1.2-0.7,2.2-1.7,3
			s-2.1,1.1-3.6,1.1c-1.7,0-3-0.6-3.9-1.7C36.6,64.7,36.2,63.1,36.2,61.1z M37.6,60.2l7.7,0c-0.1-1.4-0.4-2.4-1.1-3.2
			s-1.6-1.2-2.7-1.2c-1.1,0-2,0.4-2.7,1.2C38,57.8,37.7,58.8,37.6,60.2z"/>
	</g>
	<g>
		<path class="st0" d="M48.4,57.1v-2.5h1.7v-3.5h4.1v3.5h2.1v2.5h-2.1v5.2c0,0.8,0.1,1.3,0.3,1.6c0.2,0.3,0.6,0.4,1.2,0.4
			c0.1,0,0.2,0,0.3,0c0.1,0,0.1,0,0.2,0v2.8c-0.4,0.1-0.9,0.2-1.3,0.2c-0.4,0-0.8,0.1-1.2,0.1c-1.4,0-2.4-0.3-2.9-1
			c-0.5-0.7-0.8-2.2-0.8-4.4v-4.8H48.4z"/>
		<path class="st0" d="M58.4,63.8c0-1,0.3-1.9,0.8-2.5c0.6-0.6,1.4-1.1,2.5-1.4c0.6-0.1,1.4-0.3,2.4-0.4c1.4-0.2,2.1-0.6,2.1-1v-0.3
			c0-0.4-0.1-0.6-0.4-0.8c-0.3-0.2-0.7-0.3-1.2-0.3c-0.6,0-1,0.1-1.4,0.4c-0.3,0.2-0.6,0.6-0.6,1h-3.9c0.2-1.4,0.8-2.5,1.8-3.2
			c1-0.7,2.4-1,4.2-1c1.1,0,2.1,0.1,2.9,0.4c0.8,0.3,1.4,0.7,1.8,1.2c0.3,0.4,0.5,0.9,0.6,1.4c0.1,0.5,0.2,1.4,0.2,2.6v4.7
			c0,0.6,0.1,1,0.2,1.3c0.1,0.3,0.3,0.5,0.5,0.6v0.5h-4.3c0-0.2-0.1-0.4-0.1-0.6s-0.1-0.4-0.1-0.7c-0.6,0.6-1.2,1-1.8,1.3
			c-0.6,0.3-1.4,0.4-2.1,0.4c-1.2,0-2.2-0.3-2.9-1C58.8,65.9,58.4,65,58.4,63.8z M62.4,63.4c0,0.4,0.1,0.8,0.4,1.1
			c0.3,0.3,0.6,0.4,1.1,0.4c0.7,0,1.3-0.2,1.7-0.6c0.4-0.4,0.7-0.9,0.7-1.6v-1.4c-0.3,0.2-0.9,0.4-1.7,0.6c-0.4,0.1-0.7,0.1-0.9,0.2
			c-0.5,0.1-0.8,0.3-1,0.5S62.4,63,62.4,63.4z"/>
		<path class="st0" d="M72.2,63.3h4.1c0,0.6,0.3,1,0.6,1.2c0.4,0.3,0.9,0.4,1.6,0.4c0.6,0,1-0.1,1.4-0.3c0.3-0.2,0.5-0.5,0.5-0.9
			c0-0.5-0.6-0.9-1.9-1.2c-0.7-0.2-1.2-0.4-1.6-0.5c-1.6-0.5-2.6-1-3.2-1.6c-0.6-0.5-0.9-1.3-0.9-2.2c0-1.3,0.5-2.3,1.4-3
			c1-0.7,2.3-1.1,4-1.1c1.8,0,3.2,0.3,4.2,0.9s1.5,1.5,1.7,2.8h-4c-0.1-0.4-0.3-0.7-0.6-0.9s-0.7-0.3-1.2-0.3
			c-0.5,0-0.9,0.1-1.1,0.3c-0.3,0.2-0.4,0.4-0.4,0.7c0,0.5,0.7,0.8,2,1.2c0.3,0.1,0.6,0.2,0.7,0.2c1.2,0.4,2.1,0.7,2.6,0.8
			c0.5,0.2,0.8,0.4,1,0.5c0.5,0.3,0.8,0.7,1,1.2c0.2,0.5,0.3,1,0.3,1.6c0,1.4-0.5,2.4-1.6,3.2c-1.1,0.8-2.5,1.1-4.5,1.1
			c-1.9,0-3.3-0.4-4.4-1.1C72.9,65.7,72.3,64.7,72.2,63.3z"/>
		<path class="st0" d="M86.4,67.1V50.2h4v8.7l3.8-4.3H99l-4.3,4.8l4.4,7.7h-4.5l-2.6-4.9l-1.5,1.6v3.4H86.4z"/>
	</g>
</g>
<g>
	<path class="st0" d="M24.5,26.5v-5.3c0.1,0,0.2,0,0.4,0c0.2,0,0.3,0,0.4,0c1.7,0,3-0.4,3.7-1.2c0.7-0.8,1.1-2.2,1.1-4.2v-5.6
		c0-2,0.2-3.4,0.5-4.3c0.4-0.8,1-1.5,1.8-2c0.7-0.4,1.6-0.6,2.7-0.8s2.4-0.3,4-0.3c0.2,0,0.5,0,0.8,0c0.4,0,0.7,0,0.9,0v5.3
		c-0.1,0-0.3,0-0.5,0c-0.2,0-0.4,0-0.4,0c-1.4,0-2.4,0.3-2.9,0.8c-0.5,0.5-0.8,1.6-0.8,3.2v5.3c0,2.1-0.3,3.5-1,4.4
		c-0.7,0.9-1.9,1.5-3.6,1.9c1.8,0.4,3,1,3.7,1.8c0.7,0.9,1,2.3,1,4.4v5.3c0,1.6,0.2,2.7,0.7,3.2c0.5,0.5,1.5,0.8,2.9,0.8
		c0.1,0,0.3,0,0.5,0c0.2,0,0.4,0,0.5,0v5.3c-0.2,0-0.5,0-0.9,0c-0.4,0-0.7,0-0.9,0c-1.6,0-2.9-0.1-4-0.3c-1.1-0.2-1.9-0.4-2.6-0.8
		c-0.9-0.5-1.5-1.1-1.8-2c-0.3-0.8-0.5-2.2-0.5-4.2v-5.6c0-2-0.4-3.3-1.1-4.1c-0.7-0.8-2-1.2-3.7-1.2c-0.1,0-0.2,0-0.4,0
		C24.7,26.5,24.6,26.5,24.5,26.5z"/>
	<path class="st0" d="M60,39.3c0.1,0,0.3,0,0.5,0c0.2,0,0.4,0,0.4,0c1.4,0,2.4-0.3,2.9-0.8c0.5-0.5,0.7-1.6,0.7-3.2V30
		c0-2.1,0.3-3.5,1-4.4c0.7-0.9,1.9-1.5,3.6-1.8c-1.8-0.4-3-1-3.7-1.9c-0.7-0.9-1-2.3-1-4.4v-5.3c0-1.6-0.2-2.7-0.7-3.2
		c-0.5-0.5-1.4-0.8-2.8-0.8c-0.1,0-0.3,0-0.5,0c-0.2,0-0.4,0-0.5,0V2.9c0.2,0,0.5,0,0.9,0c0.4,0,0.7,0,0.8,0c1.6,0,2.9,0.1,4,0.3
		s1.9,0.4,2.7,0.8c0.9,0.5,1.5,1.1,1.8,2c0.4,0.8,0.5,2.3,0.5,4.3v5.6c0,2,0.4,3.4,1.1,4.2c0.7,0.8,2,1.2,3.7,1.2c0.1,0,0.2,0,0.4,0
		c0.2,0,0.3,0,0.4,0v5.3c-0.1,0-0.2,0-0.4,0c-0.2,0-0.3,0-0.4,0c-1.8,0-3,0.4-3.7,1.2c-0.7,0.8-1.1,2.2-1.1,4.1v5.6
		c0,2-0.2,3.4-0.5,4.3c-0.4,0.8-1,1.5-1.8,2c-0.7,0.4-1.5,0.6-2.5,0.8c-1,0.2-2.3,0.3-3.9,0.3c-0.2,0-0.5,0-1,0c-0.4,0-0.8,0-1,0
		V39.3z"/>
</g>
<g>
	<polygon class="st4" points="51.9,35.4 37.7,26.5 41.4,21.4 50.3,27 71.9,0 76.4,4.1 	"/>
</g>
</svg>
