<?xml version="1.0" encoding="UTF-8" standalone="no"?><!DOCTYPE svg PUBLIC "-//W3C//DTD SVG 1.1//EN" "http://www.w3.org/Graphics/SVG/1.1/DTD/svg11.dtd"><svg width="100%" height="100%" viewBox="0 0 198 45" version="1.1" xmlns="http://www.w3.org/2000/svg" xmlns:xlink="http://www.w3.org/1999/xlink" xml:space="preserve" xmlns:serif="http://www.serif.com/" style="fill-rule:evenodd;clip-rule:evenodd;stroke-linejoin:round;stroke-miterlimit:1.41421;"><g><g><g><path d="M58.3,24.1c0,-2.8 0.7,-5.1 2,-6.7c1.4,-1.6 3.2,-2.4 5.6,-2.4c2,0 3.6,0.5 4.9,1.6c1.3,1.1 2,2.5 2.1,4.3l-2.1,0c-0.2,-1.2 -0.7,-2.2 -1.6,-3c-0.9,-0.8 -2,-1.1 -3.3,-1.1c-1.7,0 -3.1,0.6 -4.1,1.9c-1,1.3 -1.5,3 -1.5,5.3c0,2.3 0.5,4.1 1.5,5.4c1,1.3 2.4,2 4.1,2c1.3,0 2.4,-0.4 3.3,-1.2c0.9,-0.8 1.4,-2 1.6,-3.4l2,0c-0.2,2 -0.9,3.5 -2.2,4.6c-1.3,1.1 -2.9,1.7 -4.9,1.7c-2.3,0 -4.1,-0.8 -5.5,-2.4c-1.4,-1.6 -1.9,-3.9 -1.9,-6.6Z" style="fill:#f6f6f6;fill-rule:nonzero;"/><path d="M74.3,24c0,-2.9 0.7,-5.1 2.1,-6.7c1.4,-1.6 3.3,-2.4 5.8,-2.4c2.5,0 4.4,0.8 5.8,2.4c1.4,1.6 2,3.9 2,6.7c0,2.8 -0.7,5 -2.1,6.6c-1.4,1.6 -3.3,2.3 -5.8,2.3c-2.5,0 -4.4,-0.8 -5.8,-2.3c-1.3,-1.5 -2,-3.7 -2,-6.6Zm2,0c0,2.3 0.5,4.1 1.5,5.4c1,1.3 2.4,1.9 4.3,1.9c1.9,0 3.3,-0.6 4.3,-1.9c1,-1.3 1.6,-3.1 1.6,-5.4c0,-2.3 -0.5,-4.1 -1.5,-5.4c-1,-1.3 -2.4,-1.9 -4.3,-1.9c-1.8,0 -3.3,0.6 -4.3,1.9c-1,1.3 -1.6,3.1 -1.6,5.4Z" style="fill:#f6f6f6;fill-rule:nonzero;"/><path d="M91.8,24c0,-2.8 0.7,-5 2.1,-6.6c1.4,-1.6 3.2,-2.4 5.6,-2.4c1.3,0 2.5,0.3 3.5,0.9c1,0.6 1.8,1.4 2.4,2.5l0,-9.6l2,0l0,23.7l-2,0l0,-2.9c-0.7,1.1 -1.5,2 -2.5,2.5c-1,0.5 -2.2,0.8 -3.5,0.8c-2.3,0 -4.1,-0.8 -5.5,-2.4c-1.5,-1.5 -2.1,-3.7 -2.1,-6.5Zm2.1,0c0,2.3 0.5,4.1 1.5,5.3c1,1.2 2.4,1.9 4.2,1.9c1.9,0 3.3,-0.6 4.3,-1.9c1,-1.3 1.5,-3 1.5,-5.4c0,-2.3 -0.5,-4.1 -1.5,-5.4c-1,-1.3 -2.4,-1.9 -4.3,-1.9c-1.8,0 -3.3,0.6 -4.3,1.9c-0.9,1.4 -1.4,3.2 -1.4,5.5Z" style="fill:#f6f6f6;fill-rule:nonzero;"/><path d="M108.9,24.1c0,-2.9 0.7,-5.1 2,-6.7c1.3,-1.6 3.2,-2.4 5.5,-2.4c2.3,0 4.1,0.8 5.4,2.3c1.3,1.5 1.9,3.7 1.9,6.4l0,0.7l-12.8,0l0,0.1c0,2.1 0.5,3.8 1.5,5c1,1.2 2.4,1.9 4.1,1.9c1.3,0 2.5,-0.4 3.4,-1.1c0.9,-0.7 1.5,-1.7 1.6,-3l2.2,0c-0.2,1.7 -1,3.1 -2.3,4.2c-1.3,1 -3,1.6 -5,1.6c-2.3,0 -4.1,-0.8 -5.5,-2.4c-1.3,-1.6 -2,-3.8 -2,-6.6Zm2,-1.3l10.7,0c-0.1,-1.9 -0.6,-3.4 -1.6,-4.5c-1,-1.1 -2.2,-1.6 -3.7,-1.6c-1.6,0 -2.8,0.5 -3.8,1.6c-0.9,1.1 -1.5,2.6 -1.6,4.5Z" style="fill:#f6f6f6;fill-rule:nonzero;"/></g><g><path d="M126.1,18.5l0,-3.5l2.4,0l0,-5l5.7,0l0,5l3,0l0,3.5l-3,0l0,7.3c0,1.1 0.2,1.9 0.5,2.2c0.3,0.3 0.9,0.5 1.7,0.5l0.7,0l0,4c-0.6,0.1 -1.2,0.2 -1.8,0.3c-0.6,0.1 -1.1,0.1 -1.7,0.1c-2,0 -3.3,-0.5 -4.1,-1.5c-0.7,-1 -1.1,-3 -1.1,-6.2l0,-6.8l-2.3,0l0,0.1Z" style="fill:#f6f6f6;fill-rule:nonzero;"/><path d="M140.1,27.9c0,-1.5 0.4,-2.6 1.2,-3.5c0.8,-0.9 2,-1.5 3.6,-1.9c0.9,-0.2 2,-0.4 3.3,-0.6c2,-0.3 3,-0.8 3,-1.4l0,-0.5c0,-0.5 -0.2,-0.9 -0.6,-1.2c-0.4,-0.3 -0.9,-0.4 -1.7,-0.4c-0.8,0 -1.5,0.2 -1.9,0.5c-0.5,0.3 -0.8,0.8 -0.9,1.5l-5.4,0c0.3,-2 1.1,-3.4 2.5,-4.4c1.4,-1 3.3,-1.5 5.9,-1.5c1.6,0 2.9,0.2 4,0.6c1.1,0.4 1.9,0.9 2.6,1.7c0.4,0.5 0.7,1.2 0.9,2c0.2,0.8 0.3,2 0.3,3.7l0,6.6c0,0.8 0.1,1.4 0.2,1.9c0.1,0.5 0.4,0.8 0.7,0.9l0,0.7l-6,0c-0.1,-0.3 -0.1,-0.6 -0.2,-0.9c0,-0.3 -0.1,-0.6 -0.1,-0.9c-0.8,0.8 -1.7,1.4 -2.6,1.8c-0.9,0.4 -1.9,0.6 -3,0.6c-1.7,0 -3.1,-0.5 -4.1,-1.4c-1,-0.9 -1.7,-2.3 -1.7,-3.9Zm5.6,-0.6c0,0.6 0.2,1.1 0.6,1.5c0.4,0.4 0.9,0.6 1.5,0.6c1,0 1.8,-0.3 2.4,-0.8c0.6,-0.6 0.9,-1.3 0.9,-2.2l0,-2c-0.4,0.3 -1.2,0.5 -2.3,0.8c-0.5,0.1 -0.9,0.2 -1.2,0.3c-0.7,0.2 -1.2,0.4 -1.5,0.7c-0.3,0.3 -0.4,0.6 -0.4,1.1Z" style="fill:#f6f6f6;fill-rule:nonzero;"/><path d="M159.4,27.2l5.7,0c0.1,0.8 0.4,1.4 0.9,1.7c0.5,0.4 1.2,0.6 2.2,0.6c0.8,0 1.4,-0.2 1.9,-0.5c0.5,-0.3 0.7,-0.7 0.7,-1.3c0,-0.7 -0.9,-1.2 -2.7,-1.7c-1,-0.3 -1.7,-0.5 -2.3,-0.7c-2.2,-0.7 -3.7,-1.5 -4.5,-2.2c-0.8,-0.8 -1.2,-1.8 -1.2,-3c0,-1.8 0.7,-3.2 2,-4.2c1.3,-1 3.2,-1.5 5.6,-1.5c2.5,0 4.5,0.4 5.9,1.3c1.4,0.9 2.2,2.2 2.3,3.9l-5.6,0c-0.1,-0.6 -0.4,-1 -0.8,-1.3c-0.4,-0.3 -1,-0.4 -1.7,-0.4c-0.7,0 -1.2,0.1 -1.6,0.4c-0.4,0.2 -0.6,0.6 -0.6,1c0,0.6 1,1.2 2.9,1.7c0.5,0.1 0.8,0.2 1,0.3c1.7,0.5 2.9,0.9 3.6,1.2c0.7,0.3 1.2,0.5 1.5,0.8c0.6,0.5 1.1,1 1.4,1.7c0.3,0.6 0.5,1.4 0.5,2.2c0,1.9 -0.7,3.4 -2.2,4.5c-1.5,1.1 -3.6,1.6 -6.2,1.6c-2.6,0 -4.7,-0.5 -6.2,-1.5c-1.5,-1 -2.4,-2.7 -2.5,-4.6Z" style="fill:#f6f6f6;fill-rule:nonzero;"/><path d="M179.3,32.5l0,-23.7l5.6,0l0,12.2l5.3,-6l6.7,0l-6.1,6.7l6.2,10.8l-6.4,0l-3.7,-6.9l-2.1,2.2l0,4.7l-5.5,0Z" style="fill:#f6f6f6;fill-rule:nonzero;"/></g></g><g><path d="M0,26.5l0,-5.3l0.8,0c1.7,0 3,-0.4 3.7,-1.2c0.7,-0.8 1.1,-2.2 1.1,-4.2l0,-5.6c0,-2 0.2,-3.4 0.5,-4.3c0.4,-0.8 1,-1.5 1.8,-2c0.7,-0.4 1.6,-0.6 2.7,-0.8c1.1,-0.2 2.4,-0.3 4,-0.3l1.7,0l0,5.3c-0.1,0 -0.3,0 -0.5,0c-0.2,0 -0.4,0 -0.4,0c-1.4,0.1 -2.4,0.4 -2.9,0.9c-0.5,0.5 -0.8,1.6 -0.8,3.2l0,5.3c0,2.1 -0.3,3.5 -1,4.4c-0.7,0.9 -1.9,1.5 -3.6,1.9c1.8,0.4 3,1 3.7,1.8c0.7,0.9 1,2.3 1,4.4l0,5.3c0,1.6 0.2,2.7 0.7,3.2c0.5,0.5 1.5,0.8 2.9,0.8l1,0l0,5.3l-1.8,0c-1.6,0 -2.9,-0.1 -4,-0.3c-1.1,-0.2 -2,-0.3 -2.7,-0.7c-0.9,-0.5 -1.5,-1.1 -1.8,-2c-0.3,-0.8 -0.5,-2.2 -0.5,-4.2l0,-5.6c0,-2 -0.4,-3.3 -1.1,-4.1c-0.7,-0.8 -2,-1.2 -3.7,-1.2l-0.8,0Z" style="fill:#f6f6f6;fill-rule:nonzero;"/><path d="M35.5,39.3l0.9,0c1.4,0 2.4,-0.3 2.9,-0.8c0.5,-0.5 0.7,-1.6 0.7,-3.2l0,-5.3c0,-2.1 0.3,-3.5 1,-4.4c0.7,-0.9 1.9,-1.5 3.6,-1.8c-1.8,-0.4 -3,-1 -3.7,-1.9c-0.7,-0.9 -1,-2.3 -1,-4.4l0,-5.3c0,-1.6 -0.2,-2.7 -0.7,-3.2c-0.5,-0.5 -1.4,-0.8 -2.8,-0.8l-1,0l0,-5.3l1.7,0c1.6,0 2.9,0.1 4,0.3c1.1,0.2 1.9,0.4 2.7,0.8c0.9,0.5 1.5,1.1 1.8,2c0.4,0.8 0.5,2.3 0.5,4.3l0,5.6c0,2 0.4,3.4 1.1,4.2c0.7,0.8 2,1.2 3.7,1.2l0.8,0l0,5.3l-0.8,0c-1.8,0 -3,0.4 -3.7,1.2c-0.7,0.8 -1.1,2.2 -1.1,4.1l0,5.6c0,2 -0.2,3.4 -0.5,4.3c-0.4,0.8 -1,1.5 -1.8,2c-0.7,0.4 -1.5,0.6 -2.5,0.8c-1,0.2 -2.3,0.3 -3.9,0.3l-2,0l0,-5.6l0.1,0Z" style="fill:#f6f6f6;fill-rule:nonzero;"/></g><path d="M27.4,35.4l-14.2,-8.9l3.7,-5.1l8.9,5.6l21.7,-27l4.5,4.1l-24.6,31.3Z" style="fill:#009992;fill-rule:nonzero;"/></g></svg>