<?xml version="1.0" encoding="utf-8"?>
<!-- Generator: Adobe Illustrator 16.0.0, SVG Export Plug-In . SVG Version: 6.00 Build 0)  -->
<!DOCTYPE svg PUBLIC "-//W3C//DTD SVG 1.1//EN" "http://www.w3.org/Graphics/SVG/1.1/DTD/svg11.dtd">
<svg version="1.1" id="Ebene_1" xmlns="http://www.w3.org/2000/svg" xmlns:xlink="http://www.w3.org/1999/xlink" x="0px" y="0px"
	 width="89.3px" height="91.2px" viewBox="0 0 89.3 91.2" style="enable-background:new 0 0 89.3 91.2;" xml:space="preserve">
<style type="text/css">
<![CDATA[
	.st0{fill:#46E8BA;}
	.st1{fill:#B2B2B2;}
	.st2{fill:#878787;}
	.st3{fill:#BE1622;}
	.st4{fill:#FFBB61;}
	.st5{fill:#FFC37B;}
	.st6{fill:#9E1324;}
	.st7{fill:#CE2035;}
	.st8{fill:#33A886;}
	.st9{fill:#3C3C3B;}
	.st10{fill:#3CCEA7;}
	.st11{fill:#D89C55;}
	.st12{fill:#DADADA;}
]]>
</style>
<g>
	<polygon class="st10" points="25.5,74 16.7,74 16.6,65.2 56.5,24.2 65.5,33 	"/>
	<polygon class="st0" points="16.6,65.2 10.1,67.6 12.3,61.1 52.3,20.1 56.5,24.2 	"/>
	<polygon class="st8" points="29.8,78.1 23.3,80.4 25.5,74 65.5,33 69.7,37.1 	"/>
	<polygon class="st4" points="16.6,65.2 0,91.2 25.5,74 16.7,74 	"/>
	<polygon class="st11" points="25.5,74 0,91.2 29.8,78.1 23.3,80.4 	"/>
	<polygon class="st5" points="16.6,65.2 0,91.2 12.3,61.1 10.1,67.6 	"/>
	<polygon class="st9" points="5,83.3 5.3,85.8 7.6,86.1 6.9,87.3 8.2,87.6 0,91.2 3.5,82.7 3.6,84.3 	"/>
	
		<rect x="59.8" y="16.3" transform="matrix(0.7159 0.6982 -0.6982 0.7159 35.1376 -39.4484)" class="st1" width="12.5" height="14.4"/>
	
		<rect x="69.7" y="22.7" transform="matrix(0.7158 0.6983 -0.6983 0.7158 41.5184 -42.2321)" class="st2" width="5.9" height="14.4"/>
	
		<rect x="56.5" y="9.8" transform="matrix(0.7158 0.6983 -0.6983 0.7158 28.7759 -36.6747)" class="st12" width="5.9" height="14.4"/>
	<rect x="70.1" y="5.3" transform="matrix(0.716 0.6981 -0.6981 0.716 30.6834 -49.6353)" class="st3" width="12.5" height="15.1"/>
	<polygon class="st6" points="89.3,17 86.1,11.8 75.5,22.7 79.8,26.8 	"/>
	<polygon class="st7" points="77.1,3.1 71.9,0 62.3,9.8 66.6,13.9 	"/>
</g>
</svg>
