<?xml version="1.0" encoding="utf-8"?>
<!-- Generator: Adobe Illustrator 16.0.0, SVG Export Plug-In . SVG Version: 6.00 Build 0)  -->
<!DOCTYPE svg PUBLIC "-//W3C//DTD SVG 1.1//EN" "http://www.w3.org/Graphics/SVG/1.1/DTD/svg11.dtd">
<svg version="1.1" id="Ebene_1" xmlns="http://www.w3.org/2000/svg" xmlns:xlink="http://www.w3.org/1999/xlink" x="0px" y="0px"
	 width="234.6px" height="27.8px" viewBox="0 0 234.6 27.8" style="enable-background:new 0 0 234.6 27.8;" xml:space="preserve">
<style type="text/css">
<![CDATA[
	.st0{fill:#46E8BA;}
	.st1{fill:#B2B2B2;}
	.st2{fill:#878787;}
	.st3{fill:#BE1622;}
	.st4{fill:#FFBB61;}
	.st5{fill:#FFC37B;}
	.st6{fill:#9E1324;}
	.st7{fill:#CE2035;}
	.st8{fill:#33A886;}
	.st9{fill:#3C3C3B;}
	.st10{fill:#3CCEA7;}
	.st11{fill:#D89C55;}
	.st12{fill:#DADADA;}
]]>
</style>
<g>
	<polygon class="st10" points="203.4,7.6 209.5,13.9 203.4,20.1 30.6,20.1 30.6,7.6 	"/>
	<polygon class="st0" points="203.4,20.1 209.5,23.1 203.4,26.1 30.6,26.1 30.6,20.1 	"/>
	<polygon class="st8" points="203.4,1.7 209.5,4.7 203.4,7.6 30.6,7.6 30.6,1.7 	"/>
	<polygon class="st4" points="203.4,20.1 233.5,13.9 203.4,7.6 209.5,13.9 	"/>
	<polygon class="st11" points="203.4,7.6 233.5,13.9 203.4,1.7 209.5,4.7 	"/>
	<polygon class="st5" points="203.4,20.1 233.5,13.9 203.4,26.1 209.5,23.1 	"/>
	<polygon class="st9" points="224.3,15.8 225.9,13.9 224.5,12 225.9,11.6 225.2,10.5 233.5,13.9 225,17.3 226.1,16.1 	"/>
	<rect x="16.2" y="7.6" class="st1" width="14.4" height="12.5"/>
	<rect x="16.2" y="1.7" class="st2" width="14.4" height="5.9"/>
	<rect x="16.2" y="20.1" class="st12" width="14.4" height="5.9"/>
	<rect x="1.1" y="7.6" class="st3" width="15.1" height="12.5"/>
	<polygon class="st6" points="2.6,1.7 1.1,7.6 16.2,7.6 16.2,1.7 	"/>
	<polygon class="st7" points="1.1,20.1 2.6,26.1 16.2,26.1 16.2,20.1 	"/>
</g>
</svg>
