<?xml version="1.0" encoding="utf-8"?>
<!-- Generator: Adobe Illustrator 16.0.0, SVG Export Plug-In . SVG Version: 6.00 Build 0)  -->
<!DOCTYPE svg PUBLIC "-//W3C//DTD SVG 1.1//EN" "http://www.w3.org/Graphics/SVG/1.1/DTD/svg11.dtd">
<svg version="1.1" id="Ebene_1" xmlns="http://www.w3.org/2000/svg" xmlns:xlink="http://www.w3.org/1999/xlink" x="0px" y="0px"
	 width="147.9px" height="214.2px" viewBox="0 0 147.9 214.2" enable-background="new 0 0 147.9 214.2" xml:space="preserve">
<g>
	<defs>
		<rect id="SVGID_3_" width="147.9" height="214.2"/>
	</defs>
	<clipPath id="SVGID_2_">
		<use xlink:href="#SVGID_3_"  overflow="visible"/>
	</clipPath>
	<path clip-path="url(#SVGID_2_)" fill="#D9E5EC" d="M52.8,195c0,5.203,2.048,9.703,6.15,13.5c4.097,3.797,9.047,5.7,14.85,5.7
		c5.798,0,10.748-1.903,14.85-5.7c4.097-3.797,6.149-8.297,6.149-13.5V38.101H126.6c5.798,0,10.8-1.848,15-5.551
		c4.199-3.697,6.3-8.146,6.3-13.35c0-5.4-2.203-9.947-6.601-13.65C136.898,1.853,132,0,126.6,0H21c-3,0-5.752,0.601-8.25,1.8
		C10.247,3,8.048,4.552,6.15,6.45c-1.903,1.903-3.403,4.003-4.5,6.3C0.548,15.052,0,17.203,0,19.2c0,5.203,1.997,9.652,6,13.35
		c3.998,3.703,9,5.551,15,5.551h31.8V195z"/>
</g>
</svg>
